StickNoBills_final_no_refs.sfdir
StartChar: exclam
Encoding: 357 33 101
Width: 251
VWidth: 0
Flags: HMW
LayerCount: 2
Back
Fore
SplineSet
50 53 m 0
 50 95 83 129 125 129 c 0
 167 129 200 95 200 53 c 0
 200 11 167 -22 125 -22 c 0
 83 -22 50 11 50 53 c 0
62 166 m 1
 62 700 l 1
 191 700 l 1
 191 166 l 1
 62 166 l 1
EndSplineSet
EndChar
StartChar: quotedbl
Encoding: 300 34 44
Width: 507
VWidth: 0
Flags: HMW
LayerCount: 2
Back
Fore
SplineSet
227 465 m 1
 100 465 l 1
 100 736 l 1
 227 736 l 1
 227 465 l 1
407 465 m 1
 280 465 l 1
 280 736 l 1
 407 736 l 1
 407 465 l 1
EndSplineSet
EndChar
StartChar: parenleft
Encoding: 355 40 99
Width: 364
VWidth: 0
Flags: HMW
LayerCount: 2
Back
Fore
SplineSet
263 735 m 1
 264 648 l 1
 225 625 204 593 203 521 c 2
 203 208 l 2
 203 206 203 204 203 202 c 0
 203 104 228 73 263 51 c 1
 263 -37 l 1
 121 22 100 93 100 189 c 1
 100 510 l 1
 100 650 164 696 263 735 c 1
EndSplineSet
EndChar
StartChar: asterisk
Encoding: 302 42 46
Width: 690
VWidth: 0
Flags: HMW
LayerCount: 2
Back
Fore
SplineSet
402 94 m 1
 284 94 l 1
 284 237 l 1
 170 159 l 1
 101 253 l 1
 245 354 l 1
 100 459 l 1
 170 554 l 1
 284 471 l 1
 284 605 l 1
 401 605 l 1
 401 467 l 1
 521 556 l 1
 590 461 l 1
 443 354 l 1
 589 251 l 1
 520 155 l 1
 401 238 l 1
 402 94 l 1
EndSplineSet
EndChar
StartChar: plus
Encoding: 301 43 45
Width: 575
VWidth: 0
Flags: HMW
LayerCount: 2
Back
Fore
SplineSet
475 357 m 1
 475 230 l 1
 350 230 l 1
 350 87 l 1
 223 87 l 1
 223 230 l 1
 100 230 l 1
 100 357 l 1
 223 357 l 1
 223 498 l 1
 350 498 l 1
 350 357 l 1
 475 357 l 1
EndSplineSet
EndChar
StartChar: hyphen
Encoding: 326 45 70
Width: 516
VWidth: 0
Flags: HMW
LayerCount: 2
Back
Fore
SplineSet
416 357 m 1
 416 230 l 1
 100 230 l 1
 100 357 l 1
 416 357 l 1
EndSplineSet
EndChar
StartChar: slash
Encoding: 327 47 71
Width: 501
VWidth: 0
Flags: HMW
LayerCount: 2
Back
Fore
SplineSet
100 -23 m 1
 275 716 l 1
 401 716 l 1
 227 -23 l 1
 100 -23 l 1
EndSplineSet
EndChar
StartChar: two
Encoding: 288 50 32
Width: 628
VWidth: 0
Flags: HMW
LayerCount: 2
Back
Fore
SplineSet
521 127 m 1
 521 0 l 1
 120 0 l 1
 120 127 l 1
 521 127 l 1
266 703 m 1
 266 577 l 2
 265 577 218 561 218 499 c 1
 100 524 l 1
 109 608 171 691 266 703 c 1
321 578 m 1
 321 704 l 1
 323 704 326 704 328 704 c 0
 482 704 528 573 529 500 c 0
 529 499 529 498 529 497 c 0
 529 393 468 364 409 319 c 0
 338 265 304 235 267 186 c 1
 127 186 l 1
 192 306 289 363 319 388 c 0
 363 424 410 438 411 500 c 0
 411 501 411 501 411 502 c 0
 411 552 376 576 321 578 c 1
266 577 m 2
 266 577 266 577 266 577 c 2
 266 577 266 577 266 577 c 2
 266 577 l 2
EndSplineSet
EndChar
StartChar: three
Encoding: 343 51 87
Width: 627
VWidth: 0
Flags: HMW
LayerCount: 2
Back
Fore
SplineSet
206 537 m 1
 100 600 l 1
 133 656 191 698 269 698 c 1
 269 572 l 1
 240 570 220 558 206 537 c 1
328 122 m 1
 371 122 403 161 403 201 c 0
 403 251 371 286 327 286 c 1
 327 410 l 1
 380 416 403 448 403 499 c 0
 403 553 360 574 330 574 c 0
 329 574 327 574 326 574 c 1
 326 698 l 1
 460 695 527 582 527 508 c 0
 527 403 479 353 465 350 c 1
 493 331 528 274 528 199 c 0
 528 75 411 0 331 0 c 0
 330 0 330 0 329 0 c 1
 328 122 l 1
206 160 m 1
 220 139 240 127 269 125 c 1
 269 -1 l 1
 191 -1 133 41 100 97 c 1
 206 160 l 1
EndSplineSet
EndChar
StartChar: five
Encoding: 329 53 73
Width: 1024
VWidth: 0
Flags: HM
LayerCount: 2
Back
Fore
SplineSet
563 574 m 1
 325 573 l 1
 313 408 l 1
 326 411 339 413 356 413 c 1
 356 287 l 1
 330 286 306 272 294 252 c 1
 183 318 l 1
 209 700 l 1
 563 700 l 1
 563 574 l 1
414 414 m 1
 563 411 612 275 612 210 c 0
 612 86 518 0 413 -2 c 1
 413 125 l 1
 458 128 487 161 487 202 c 0
 487 258 451 279 414 286 c 1
 414 414 l 1
293 160 m 1
 307 139 327 127 356 125 c 1
 356 -1 l 1
 278 -1 220 41 187 97 c 1
 293 160 l 1
EndSplineSet
Validated: 1
EndChar
StartChar: six
Encoding: 317 54 61
Width: 1024
VWidth: 0
Flags: HMW
LayerCount: 2
Back
Fore
SplineSet
490 415 m 1
 617 415 674 328 674 210 c 0
 674 76 582 2 490 1 c 1
 490 125 l 1
 531 130 558 173 558 209 c 0
 558 263 526 299 491 299 c 1
 490 415 l 1
563 537 m 1
 547 559 528 573 501 573 c 0
 497 573 494 572 490 572 c 1
 490 698 l 1
 568 698 623 659 658 600 c 1
 563 537 l 1
435 698 m 1
 435 573 l 1
 384 571 360 468 360 404 c 0
 360 403 360 401 360 400 c 1
 383 411 408 415 436 415 c 1
 436 297 l 1
 436 297 435 297 435 297 c 0
 406 297 370 268 370 210 c 0
 370 173 398 129 436 125 c 1
 436 0 l 1
 265 0 238 194 238 365 c 0
 238 482 290 698 435 698 c 1
EndSplineSet
Validated: 1
Colour: ff0000
EndChar
StartChar: nine
Encoding: 332 57 76
Width: 1024
VWidth: 0
Flags: HMW
LayerCount: 2
Back
Fore
SplineSet
448 284 m 1
 321 284 264 371 264 489 c 0
 264 623 356 697 448 698 c 1
 448 574 l 1
 407 569 380 526 380 490 c 0
 380 436 412 400 447 400 c 1
 448 284 l 1
375 162 m 1
 393 140 410 120 448 119 c 1
 448 1 l 1
 375 1 321 37 291 100 c 1
 375 162 l 1
503 1 m 1
 503 119 l 1
 556 121 578 215 578 283 c 0
 578 288 578 294 578 299 c 1
 555 288 530 284 502 284 c 1
 502 402 l 1
 502 402 503 402 503 402 c 0
 532 402 568 431 568 489 c 0
 568 526 535 570 502 574 c 1
 502 699 l 1
 676 699 703 512 703 334 c 0
 703 160 636 1 503 1 c 1
EndSplineSet
Validated: 1
Colour: ff0000
EndChar
StartChar: semicolon
Encoding: 334 59 78
Width: 167
VWidth: 0
Flags: HMW
LayerCount: 2
Back
Fore
SplineSet
90 360 m 0
 90 402 123 436 165 436 c 0
 207 436 240 402 240 360 c 0
 240 318 207 285 165 285 c 0
 123 285 90 318 90 360 c 0
176 -23 m 1
 49 -23 l 1
 86 129 l 1
 213 129 l 1
 176 -23 l 1
EndSplineSet
Validated: 1
EndChar
StartChar: B
Encoding: 257 66 1
Width: 530
VWidth: 0
Flags: HMW
LayerCount: 2
Back
Fore
SplineSet
266 120 m 1
 353 120 366 177 366 203 c 0
 366 225 355 287 265 287 c 1
 265 409 l 1
 325 409 364 444 364 495 c 0
 364 545 323 574 264 575 c 1
 264 699 l 1
 433 696 489 585 489 511 c 0
 489 406 441 353 427 350 c 1
 455 331 490 270 490 195 c 0
 490 66 388 -1 267 -2 c 1
 266 120 l 1
68 698 m 1
 209 698 l 5
 209 -2 l 1
 68 -2 l 1
 68 698 l 1
EndSplineSet
Validated: 1
Colour: ff0000
EndChar
StartChar: C
Encoding: 267 67 11
Width: 535
VWidth: 0
Flags: HMW
LayerCount: 2
Back
Fore
SplineSet
264 564 m 1
 264 705 l 1
 356 705 449 612 449 516 c 1
 311 465 l 1
 311 495 l 2
 311 509 311 520 306 532 c 0
 296 555 264 564 264 564 c 1
264 132 m 1
 264 132 296 141 306 164 c 0
 311 176 311 187 311 201 c 2
 311 231 l 1
 449 180 l 1
 449 84 356 -8 264 -8 c 1
 264 132 l 1
209 705 m 1
 209 564 l 1
 163 563 153 523 153 518 c 1
 153 179 l 1
 153 174 163 134 209 134 c 1
 209 -8 l 1
 66 -8 12 119 12 179 c 1
 12 518 l 1
 12 578 66 705 209 705 c 1
EndSplineSet
Validated: 1
EndChar
StartChar: G
Encoding: 274 71 18
Width: 540
VWidth: 0
Flags: HMW
LayerCount: 2
Back
SplineSet
212.934570312 550.514648438 m 1025,93,94
212.934570312 149.44140625 m 1025,107,-1
EndSplineSet
Fore
SplineSet
264 564 m 1
 264 705 l 1
 357 705 449 612 449 516 c 1
 311 465 l 1
 311 495 l 2
 311 509 311 520 306 532 c 0
 296 555 264 564 264 564 c 1
449 351 m 1
 449 174 l 2
 449 93 346 -6 264 -7 c 1
 264 134 l 1
 270 134 307 153 307 188 c 2
 307 221 l 1
 264 221 l 1
 264 351 l 1
 449 351 l 1
209 -8 m 1
 149 -8 12 46 12 190 c 1
 12 301 13 413 13 524 c 1
 21 589 77 705 209 705 c 1
 209 564 l 1
 163 563 154 513 154 508 c 1
 153 190 l 2
 154 144 204 134 209 134 c 1
 209 -8 l 1
EndSplineSet
Validated: 1
EndChar
StartChar: I
Encoding: 259 73 3
Width: 236
VWidth: 0
Flags: HMW
LayerCount: 2
Back
Fore
SplineSet
46 700 m 1
 187 700 l 1
 187 0 l 1
 46 0 l 1
 46 700 l 1
EndSplineSet
Validated: 1
EndChar
StartChar: J
Encoding: 266 74 10
Width: 531
VWidth: 0
Flags: HMW
LayerCount: 2
Back
SplineSet
46.6689453125 179.250976562 m 1025,3,-1
EndSplineSet
Fore
SplineSet
209 -8 m 5
 149 -8 22 51 22 190 c 5
 22 239 l 5
 163 239 l 5
 163 190 l 6
 164 144 204 134 209 134 c 5
 209 -8 l 5
264 -8 m 1
 264 134 l 1
 269 134 319 144 320 190 c 2
 320 700 l 1
 460 700 l 1
 460 190 l 1
 460 46 324 -8 264 -8 c 1
EndSplineSet
Validated: 1
EndChar
StartChar: K
Encoding: 262 75 6
Width: 510
VWidth: 0
Flags: HMW
LayerCount: 2
Back
Fore
SplineSet
350 700 m 1
 489 700 l 1
 403 409 l 1
 493 0 l 1
 355 0 l 1
 263 409 l 1
 350 700 l 1
68 700 m 1
 209 700 l 1
 209 0 l 1
 68 0 l 1
 68 700 l 1
EndSplineSet
Validated: 1
EndChar
StartChar: M
Encoding: 264 77 8
Width: 717
VWidth: 0
Flags: HMW
LayerCount: 2
Back
Fore
SplineSet
49 -3 m 1
 49 433 l 1
 58 433 l 1
 190 123 l 1
 190 -3 l 1
 49 -3 l 1
49 698 m 1
 159 698 l 1
 350 235 l 1
 456 474 l 1
 466 473 l 1
 466 149 l 1
 399 -3 l 1
 302 -3 l 1
 49 606 l 1
 49 698 l 1
521 698 m 1
 662 698 l 1
 662 -2 l 1
 521 -2 l 1
 521 698 l 1
EndSplineSet
Validated: 1
EndChar
StartChar: N
Encoding: 278 78 22
Width: 599
VWidth: 0
Flags: HMW
LayerCount: 2
Back
Fore
SplineSet
73 -3 m 1
 73 491 l 1
 81 491 l 1
 214 254 l 1
 214 -3 l 1
 73 -3 l 1
490 698 m 1
 490 293 l 1
 482 293 l 1
 349 530 l 1
 349 698 l 1
 490 698 l 1
73 698 m 1
 188 698 l 1
 490 167 l 1
 490 -3 l 1
 423 -3 l 1
 73 619 l 1
 73 698 l 1
EndSplineSet
Validated: 1
EndChar
StartChar: P
Encoding: 263 80 7
Width: 527
VWidth: 0
Flags: HMW
LayerCount: 2
Back
Fore
SplineSet
264 457 m 1
 297 457 l 2
 304 457 348 458 348 508 c 0
 348 559 306 561 297 561 c 2
 264 561 l 1
 264 700 l 1
 445 700 491 626 491 512 c 0
 491 369 421 318 264 318 c 1
 264 457 l 1
68 700 m 1
 209 700 l 1
 209 0 l 1
 68 0 l 1
 68 700 l 1
EndSplineSet
Validated: 1
EndChar
StartChar: Q
Encoding: 273 81 17
Width: 602
VWidth: 0
Flags: HMW
LayerCount: 2
Back
Fore
SplineSet
209 -8 m 1
 149 -8 12 46 12 190 c 0
 13 524 l 1
 13 583 77 705 209 705 c 1
 209 564 l 1
 163 563 153 513 153 508 c 1
 153 190 l 2
 154 144 204 134 209 134 c 1
 209 -8 l 1
452 132 m 1
 507 52 l 1
 398 -29 l 1
 361 22 l 1
 326 2 288 -7 264 -8 c 1
 264 134 l 1
 269 134 319 144 319 190 c 2
 319 508 l 1
 319 513 310 563 264 564 c 1
 264 705 l 1
 395 705 460 583 460 524 c 6
 460 190 l 1
 460 169 458 149 452 132 c 1
EndSplineSet
Validated: 1
EndChar
StartChar: R
Encoding: 265 82 9
Width: 526
VWidth: 0
Flags: HMW
LayerCount: 2
Back
Fore
SplineSet
265 411 m 1
 278 411 l 2
 338 411 364 447 364 488 c 0
 364 536 327 567 278 567 c 2
 265 567 l 1
 265 700 l 1
 415 700 491 616 491 496 c 0
 491 428 470 381 424 352 c 5
 460 325 490 267 490 217 c 2
 492 0 l 1
 366 0 l 1
 366 178 l 2
 366 259 336 285 265 286 c 1
 265 411 l 1
68 698 m 1
 209 698 l 1
 209 -2 l 1
 68 -2 l 1
 68 698 l 1
EndSplineSet
Validated: 1
EndChar
StartChar: S
Encoding: 275 83 19
Width: 503
VWidth: 0
Flags: HMW
LayerCount: 2
Back
Fore
SplineSet
209 701 m 1
 209 566 l 1
 188 560 171 534 171 510 c 0
 171 437 275 436 342 396 c 0
 403 360 460 320 460 214 c 0
 460 102 352 1 264 0 c 1
 264 132 l 1
 290 142 328 172 328 210 c 0
 328 291 220 301 160 330 c 0
 89 364 36 403 36 508 c 0
 36 653 158 700 209 701 c 1
264 701 m 1
 369 701 443 586 443 526 c 1
 308 502 l 1
 308 554 264 567 264 567 c 1
 264 701 l 1
209 0 m 1
 98 -0 17 116 17 185 c 1
 153 210 l 1
 153 153 209 132 209 132 c 1
 209 0 l 1
EndSplineSet
Validated: 1
EndChar
StartChar: X
Encoding: 282 88 26
Width: 453
VWidth: 0
Flags: HMW
LayerCount: 2
Back
Fore
SplineSet
43 701 m 1
 190 701 l 1
 230 581 l 1
 268 700 l 1
 413 700 l 1
 304 358 l 1
 423 0 l 1
 278 0 l 1
 233 134 l 1
 190 -1 l 1
 43 -1 l 1
 158 358 l 1
 43 701 l 1
EndSplineSet
Validated: 1
EndChar
StartChar: Y
Encoding: 283 89 27
Width: 536
VWidth: 0
Flags: HMW
LayerCount: 2
Back
Fore
SplineSet
50 701 m 1
 197 701 l 1
 327 253 l 1
 327 0 l 1
 181 0 l 1
 181 252 l 1
 50 701 l 1
293 565 m 1
 332 700 l 1
 477 700 l 1
 369 312 l 1
 293 565 l 1
EndSplineSet
Validated: 1
EndChar
StartChar: b
Encoding: 319 98 63
Width: 437
VWidth: 0
Flags: HMW
LayerCount: 2
Back
Fore
SplineSet
185 698 m 1
 185 0 l 1
 74 0 l 1
 74 698 l 1
 185 698 l 1
233 409 m 1
 233 516 l 1
 251 516 l 1
 349 516 396 423 397 379 c 1
 397 139 l 2
 397 96 350 0 250 0 c 1
 233 0 l 1
 233 107 l 1
 250 107 l 1
 282 107 289 135 289 139 c 1
 289 377 l 1
 289 381 283 408 252 409 c 1
 233 409 l 1
EndSplineSet
Validated: 1
EndChar
StartChar: h
Encoding: 310 104 54
Width: 482
VWidth: 0
Flags: HMW
LayerCount: 2
Back
Fore
SplineSet
65 698 m 1
 176 698 l 1
 176 521 l 1
 187 524 200 526 213 526 c 1
 213 418 l 1
 189 418 179 402 176 392 c 2
 176 0 l 1
 65 0 l 1
 65 698 l 1
300 385 m 1
 300 389 293 417 261 418 c 1
 261 526 l 1
 361 526 409 428 409 385 c 2
 409 -0 l 1
 300 -0 l 5
 300 385 l 1
EndSplineSet
Validated: 1
EndChar
StartChar: i
Encoding: 307 105 51
Width: 251
VWidth: 0
Flags: HMW
LayerCount: 2
Back
Fore
SplineSet
60 636 m 0
 60 671 89 700 124 700 c 0
 159 700 188 671 188 636 c 0
 188 601 159 572 124 572 c 0
 89 572 60 601 60 636 c 0
69 516 m 1
 180 516 l 1
 180 0 l 1
 69 0 l 1
 69 516 l 1
EndSplineSet
Validated: 1
EndChar
StartChar: j
Encoding: 311 106 55
Width: 277
VWidth: 0
Flags: HMW
LayerCount: 2
Back
Fore
SplineSet
9 -181 m 1
 9 -75 l 1
 31 -75 l 1
 63 -74 69 -47 69 -43 c 2
 69 516 l 1
 180 516 l 1
 180 -43 l 2
 180 -88 132 -181 34 -181 c 0
 33 -181 33 -181 32 -181 c 1
 9 -181 l 1
60 634 m 0
 60 669 89 698 124 698 c 0
 159 698 188 669 188 634 c 0
 188 599 159 570 124 570 c 0
 89 570 60 599 60 634 c 0
EndSplineSet
Validated: 1
EndChar
StartChar: l
Encoding: 312 108 56
Width: 248
VWidth: 0
Flags: HMW
LayerCount: 2
Back
Fore
SplineSet
66 698 m 1
 177 698 l 1
 177 0 l 1
 66 0 l 1
 66 698 l 1
EndSplineSet
Validated: 1
EndChar
StartChar: m
Encoding: 316 109 60
Width: 480
VWidth: 0
Flags: HMW
LayerCount: 2
Back
Fore
SplineSet
453 519 m 1
 453 412 l 1
 428 412 416 395 416 382 c 2
 416 0 l 1
 307 0 l 1
 307 380 l 2
 307 395 296 414 268 415 c 1
 268 523 l 1
 308 523 339 507 363 486 c 1
 386 505 416 519 453 519 c 1
72 0 m 1
 72 516 l 1
 177 516 l 1
 190 520 204 523 220 523 c 1
 220 415 l 1
 188 414 181 386 181 382 c 2
 181 0 l 1
 72 0 l 1
540 380 m 1
 540 384 533 412 501 412 c 1
 501 519 l 1
 601 519 649 423 649 380 c 2
 649 -0 l 1
 540 -0 l 1
 540 380 l 1
EndSplineSet
Validated: 1
EndChar
StartChar: o
Encoding: 299 111 43
Width: 480
VWidth: 0
Flags: HMW
LayerCount: 2
Back
Fore
SplineSet
216 516 m 1
 216 409 l 1
 183 409 176 381 176 377 c 1
 176 138 l 1
 176 134 184 106 216 106 c 1
 216 -1 l 1
 115 -1 67 96 67 138 c 2
 67 379 l 1
 68 422 116 516 216 516 c 1
264 516 m 1
 361 516 408 422 409 379 c 1
 409 138 l 6
 409 95 362 -1 264 -1 c 1
 264 105 l 1
 296 106 303 134 303 138 c 1
 303 377 l 1
 303 381 296 409 264 409 c 1
 264 516 l 1
EndSplineSet
Validated: 1
EndChar
StartChar: q
Encoding: 321 113 65
Width: 437
VWidth: 0
Flags: HMW
LayerCount: 2
Back
Fore
SplineSet
211 107 m 1
 211 0 l 1
 193 0 l 1
 95 0 47 93 46 137 c 0
 46 377 l 0
 46 420 94 516 194 516 c 1
 211 516 l 1
 211 409 l 1
 194 409 l 1
 162 409 155 381 155 377 c 1
 155 139 l 1
 155 135 161 108 192 107 c 1
 211 107 l 1
259 -182 m 1
 259 516 l 1
 370 516 l 1
 370 -182 l 1
 259 -182 l 1
EndSplineSet
Validated: 1
EndChar
StartChar: r
Encoding: 304 114 48
Width: 368
VWidth: 0
Flags: HMW
LayerCount: 2
Back
Fore
SplineSet
63 516 m 1
 174 516 l 1
 174 432 l 2
 174 450 233 516 304 516 c 1
 305 409 l 1
 234 409 174 305 174 272 c 2
 174 0 l 1
 63 0 l 1
 63 516 l 1
EndSplineSet
Validated: 1
EndChar
StartChar: u
Encoding: 315 117 59
Width: 476
VWidth: 0
Flags: HMW
LayerCount: 2
Back
Refer: 12 85 S 0.731558 0 0 0.730289 10.4221 5.47717 2
Refer: 12 85 N 0.731558 0 0 0.730289 10.4221 5.47717 2
Refer: 12 85 N 0.731558 0 0 0.730289 10.4221 5.47717 2
Fore
SplineSet
303 136 m 0
 303 516 l 1
 412 516 l 1
 412 136 l 2
 412 93 364 -3 264 -3 c 1
 264 104 l 1
 296 104 303 132 303 136 c 0
177 136 m 0
 177 132 184 104 216 104 c 1
 216 -3 l 1
 116 -3 68 90 68 136 c 2
 68 516 l 1
 177 516 l 1
 177 136 l 0
EndSplineSet
Validated: 1
EndChar
StartChar: v
Encoding: 323 118 67
Width: 462
VWidth: 0
Flags: HMW
LayerCount: 2
Back
Fore
SplineSet
48 515 m 1
 169 516 l 1
 283 118 l 1
 247 0 l 1
 198 0 l 1
 48 515 l 1
402 515 m 1
 317 232 l 1
 301 232 l 1
 252 397 l 1
 287 516 l 1
 402 515 l 1
EndSplineSet
Validated: 1
EndChar
StartChar: registered
Encoding: 296 174 40
Width: 1024
VWidth: 0
Flags: HMW
LayerCount: 2
Back
Fore
SplineSet
238 396 m 1
 239 354 l 1
 158 355 78 432 77 523 c 0
 77 524 77 524 77 525 c 0
 77 649 180 703 240 703 c 0
 241 703 241 703 242 703 c 1
 242 662 l 1
 183 662 117 609 117 526 c 0
 118 457 173 399 238 396 c 1
258 396 m 1
 323 399 379 456 381 525 c 0
 381 526 381 526 381 527 c 0
 381 608 317 662 258 662 c 1
 258 703 l 1
 324 702 421 641 421 528 c 0
 421 526 421 525 421 523 c 0
 418 423 335 357 258 354 c 1
 258 396 l 1
253 547 m 1
 257 547 l 2
 274 547 281 557 281 568 c 0
 281 582 271 591 257 591 c 2
 253 591 l 1
 253 628 l 1
 295 628 317 604 317 570 c 0
 317 551 311 538 298 530 c 1
 299 530 l 1
 309 522 316 506 317 492 c 2
 317 431 l 1
 282 431 l 1
 282 481 l 2
 282 504 273 511 253 511 c 1
 253 547 l 1
198 627 m 1
 237 627 l 1
 237 430 l 1
 198 430 l 1
 198 627 l 1
EndSplineSet
Validated: 1
EndChar
StartChar: EURO
Encoding: 345 8364 89
Width: 1024
VWidth: 0
Flags: HM
LayerCount: 2
Back
Fore
SplineSet
492 698 m 1
 492 558 l 1
 453 543 450 532 450 488 c 2
 450 436 l 1
 622 436 l 1
 622 376 l 1
 450 376 l 1
 450 317 l 1
 622 317 l 1
 622 258 l 1
 450 258 l 1
 450 202 l 2
 450 155 468 154 492 141 c 1
 492 2 l 1
 411 8 382 45 348 90 c 0
 327 118 315 149 313 182 c 2
 313 258 l 1
 264 258 l 1
 264 317 l 1
 313 317 l 1
 313 377 l 1
 264 377 l 1
 264 436 l 1
 313 436 l 1
 313 496 l 2
 313 498 313 500 313 502 c 0
 313 542 322 578 348 613 c 0
 386 666 431 696 492 698 c 1
552 698 m 1
 601 697 640 675 678 636 c 0
 715 598 731 544 731 514 c 1
 594 463 l 1
 595 501 l 2
 595 535 580 549 552 558 c 1
 552 698 l 1
552 2 m 1
 552 142 l 1
 580 151 595 165 595 199 c 2
 594 237 l 1
 731 186 l 1
 731 156 715 102 678 64 c 0
 640 25 601 3 552 2 c 1
EndSplineSet
Validated: 1
EndChar
StartChar: NameMe.167
Encoding: 347 -1 91
Width: 1024
VWidth: 0
Flags: HMW
LayerCount: 2
Back
Fore
SplineSet
616 757 m 1
 616 698 l 1
 657 692 691 680 724 646 c 0
 760 609 780 561 781 528 c 1
 645 502 l 1
 643 532 639 542 616 562 c 1
 616 425 l 1
 720 391 801 331 801 224 c 0
 801 123 733 19 616 0 c 1
 616 -53 l 1
 541 -53 l 1
 541 0 l 1
 491 11 453 24 413 64 c 0
 375 101 363 139 353 187 c 1
 492 214 l 1
 493 169 511 147 541 136 c 1
 541 312 l 1
 440 348 376 399 376 506 c 0
 376 605 449 684 540 699 c 1
 540 757 l 1
 616 757 l 1
266 698 m 1
 266 657 l 1
 259 656 254 648 254 641 c 0
 254 619 285 618 305 607 c 0
 324 596 341 584 341 552 c 0
 341 518 308 488 282 488 c 1
 282 527 l 1
 290 530 301 539 301 551 c 0
 301 575 269 578 251 587 c 0
 230 597 214 609 214 640 c 0
 214 684 250 698 266 698 c 1
282 698 m 1
 314 698 336 664 336 646 c 1
 295 638 l 1
 295 654 282 658 282 658 c 1
 282 698 l 1
266 488 m 1
 232 488 208 522 208 543 c 1
 249 551 l 1
 249 534 266 527 266 527 c 1
 266 488 l 1
EndSplineSet
Validated: 1
EndChar
